<svg xmlns="http://www.w3.org/2000/svg" height="666.667" width="885.92"><defs><clipPath id="a" clipPathUnits="userSpaceOnUse"><path d="M4546 1352.67H1841.72v1908.37c0 52.31 42.42 94.73 94.74 94.73h2514.8c52.33 0 94.74-42.42 94.74-94.73v-493.09h-100.38v489.7h-2508.3V1716.77h2508.3v160.63H4546v-524.73"/></clipPath><clipPath id="c" clipPathUnits="userSpaceOnUse"><path d="M4445.62 1716.77h-2508.3v1540.88h2508.3v-489.7h-799.68c-22.17 0-40.14-17.97-40.14-40.14v-810.26c0-22.17 17.97-40.15 40.14-40.15h799.68v-160.63"/></clipPath><clipPath id="e" clipPathUnits="userSpaceOnUse"><path d="M5255.93 1060.57c-34.08 155.74 39.56 194.61 110.77 232.18 58.2 30.73 113.17 59.73 110.24 151.52-3.88 121.68 79.01 165.94 152.14 205 54.41 29.06 105.79 56.5 113.45 111.87 18.45 133.22 141.33 298.8 142.56 300.45l7.64-5.71c-1.23-1.62-122.65-165.27-140.75-296.06-8.33-60.16-61.81-88.72-118.41-118.96-74.14-39.59-150.8-80.53-147.11-196.29 3.12-97.73-57.09-129.51-115.31-160.24-71.19-37.57-138.44-73.06-105.91-221.72z"/></clipPath><clipPath id="g" clipPathUnits="userSpaceOnUse"><path d="M5203.25 1176.7c30.98-42.92 59.1-64.77 85.88-66.76 37.43-2.77 71.54 32.77 111.04 73.91 50.9 53.01 108.58 113.08 195.78 120.62 104.73 9.07 114.05 103.14 123.07 194.1 8.06 81.31 15.66 158.11 90.15 168.91 70.2 10.17 115.37 33.73 134.27 70.05 15.76 30.27 12.47 69.36-9.55 113.04-20.85 41.36 9.23 99.62 41.07 161.27 34.55 66.89 70.26 136.07 34.47 178.71-5.39 6.42-11.93 9.68-19.98 9.98-40.43 1.34-109.03-69.25-181.63-144.09-84.15-86.76-171.14-176.42-234.8-176.43l-2.43.04c-57.53 2.14-77.45-64.94-100.5-142.59-25.32-85.36-54.03-182.11-142.78-203.24-70.81-16.87-101.79-26.27-110.36-40.84-6.06-10.27-1.89-25.12 5.02-49.73 5.08-18.12 11.39-40.67 16.16-70.34 18.6-115.96-24.11-182.11-34.88-196.61zm90.08-76.44c-1.63 0-3.26.06-4.91.18-30.8 2.28-60.98 25.69-95.01 73.63l-2.13 3.01 2.39 2.82c.54.67 55.08 67.12 35.06 191.9-4.68 29.12-10.92 51.39-15.94 69.28-7.33 26.12-12.16 43.36-4.06 57.13 10.29 17.47 38.08 26.63 116.38 45.28 83.38 19.86 111.25 113.8 135.85 196.68 23.17 78.06 45.11 151.69 109.98 149.41 59.62-2.28 150.16 91.14 230.03 173.49 74.13 76.41 144.08 148.4 188.82 146.98 10.74-.39 19.8-4.89 26.93-13.38 39.88-47.49 2.68-119.54-33.29-189.21-30.69-59.43-59.68-115.57-41.03-152.6 23.45-46.52 26.74-88.63 9.49-121.73-20.39-39.18-67.95-64.45-141.35-75.08-67.11-9.74-74.35-82.92-82.04-160.41-8.95-90.43-19.12-192.91-131.73-202.66-83.62-7.24-139.99-65.94-189.72-117.73-39.55-41.19-73.93-76.99-113.72-76.99z"/></clipPath><clipPath id="i" clipPathUnits="userSpaceOnUse"><path d="M5098.29 2422.88c-7.45 0-13.04-1.75-17.21-5.28-17.53-14.92-16.17-65.79-13.69-158.15.82-30.64 1.75-65.37 2.21-105.56 1.06-91.28 28.6-149.52 48.7-192.05 27.67-58.57 44.38-93.91-46.01-146-35.43-20.43-55.93-43.93-62.65-71.85-13.03-54.19 28.86-118.74 69.38-181.17 15.73-24.25 32-49.3 44.9-73.54 16.74-31.43 33.68-79.7 51.62-130.81 34.87-99.32 74.39-211.9 118.79-215.94 16.95-1.51 34.78 13.84 52.99 45.7 42.68 74.69 40.25 139.22 37.45 213.96-3.74 99.91-7.99 213.16 97.78 380.33 42.48 67.17 57.21 120.08 44.99 161.75-14.95 51.01-67.57 75.57-114 97.23-34.38 16.04-64.09 29.9-70.11 52.09-2.97 10.97.03 22.73 9.17 35.98 28.79 41.69 38.33 73.09 29.17 96-13.19 33.03-66.81 48.34-117.53 58.95-63.88 13.38-85.63 54-103.11 86.62-13.09 24.43-24.39 45.52-49.71 50.33-4.91.94-9.28 1.41-13.13 1.41zm198.52-1289.99c-1.11 0-2.23.05-3.34.16-50.51 4.6-89.35 115.25-126.91 222.26-17.82 50.76-34.65 98.71-51.05 129.48-12.7 23.88-28.86 48.77-44.49 72.85-41.61 64.11-84.64 130.41-70.63 188.58 7.36 30.61 29.32 56.07 67.14 77.87 82.78 47.71 70.05 74.64 42.15 133.67-20.48 43.32-48.52 102.65-49.61 196.01-.46 40.13-1.38 74.82-2.21 105.43-2.64 98.4-3.96 147.78 17.05 165.65 8.7 7.4 20.87 9.3 38.29 5.99 29.8-5.67 42.68-29.74 56.33-55.2 17.4-32.5 37.13-69.32 96.66-81.78 55.87-11.69 109.61-27.63 124.43-64.76 10.43-26.1.57-60.43-30.18-104.95-7.45-10.79-10.01-19.97-7.81-28.06 4.87-17.93 32.7-30.91 64.94-45.95 45.86-21.41 102.95-48.05 119.12-103.2 13.03-44.46-2.05-99.91-46.09-169.51-104.19-164.68-100-276.37-96.31-374.89 2.75-73.02 5.33-141.98-38.7-219.03-19.43-34.02-38.7-50.61-58.78-50.62z"/></clipPath><clipPath id="k" clipPathUnits="userSpaceOnUse"><path d="M5297.81 1073.84l-9.08 2.87c50.91 160.95-41.2 522.06-68.64 609.94-13.5 43.21-1.03 108.27 11.04 171.18 15.58 81.25 31.7 165.28-9.4 196.77-77.15 59.15-73.08 196-72.88 201.8l9.52-.36c-.04-1.36-4.07-137.73 69.16-193.88 45.77-35.07 29.09-122.03 12.95-206.12-11.83-61.76-24.08-125.61-11.31-166.55 33.97-108.68 119.44-455.09 68.64-615.65z"/></clipPath><clipPath id="m" clipPathUnits="userSpaceOnUse"><path d="M5229.57 1111.08c-37.23 0-71.77 131.27-119.07 191.46-55.8 71.02-78.63 182.63-144.58 263.79-65.94 81.16-251.1 106.52-169.93 235.88 17.92 28.55 29.28 54.75 36.03 79.08 13.55 6.45 22.91 20.26 22.91 36.26V2153c2.93.55 5.93.83 8.93.83 19.61 0 39.78-11.68 48.8-34.57 65.95-167.4 194.74-139.11 179.94-212.31-33.54-165.89 68.63-188.43 170.23-262 101.59-73.55 0-145.81-5.07-259.95-5.07-114.14 37.9-196.6-7.76-260.01-6.96-9.66-13.74-13.91-20.43-13.91"/></clipPath><clipPath id="o" clipPathUnits="userSpaceOnUse"><path d="M5209.98 1122.29s37.52 92.8-30.77 224.7c-68.3 131.92-123.57 111.62 41.06 213.1 164.62 101.47 1.03 421.1 141.17 461.68 140.14 40.59 261.9 557.93 368.45 492.05 106.55-65.87-35.52-319.55 40.58-395.65 76.11-76.11 86.26-172.95-71.02-251.35-157.29-78.42 111.62-377.77-101.47-469.09s-151.97-449.41-388-275.44z"/></clipPath><clipPath id="q" clipPathUnits="userSpaceOnUse"><path d="M5295.01 1024.71c-.27 11.75-5.96 288.5 45.81 335.08 52.86 47.58 63.01 131.66 64.36 177.53 1.77 59.79 78.99 95.28 82.29 96.75l3.91-8.68c-.75-.34-75.09-34.53-76.68-88.34-1.7-57.9-14.79-136.89-67.52-184.34-48.53-43.69-42.71-324.95-42.64-327.79z"/></clipPath><clipPath id="s" clipPathUnits="userSpaceOnUse"><path d="M5489.43 1137.66l-85.87-325.762h-191.89l-85.85 325.762z"/></clipPath><clipPath id="u" clipPathUnits="userSpaceOnUse"><path d="M5489.43 1137.66s-189.02-35.49-189.02-325.762h-88.74l-85.85 325.762z"/></clipPath><clipPath id="w" clipPathUnits="userSpaceOnUse"><path d="M4545.89 1641.88H1842.67L1546.85 536.211H4841.7z"/></clipPath><clipPath id="y" clipPathUnits="userSpaceOnUse"><path d="M4755.62 450.129h-3122.7c-47.53 0-86.07 38.543-86.07 86.082H4841.7c0-47.539-38.54-86.082-86.08-86.082z"/></clipPath><clipPath id="A" clipPathUnits="userSpaceOnUse"><path d="M4814.78 1877.4H4546v890.55h268.78c22.17 0 40.15-17.97 40.15-40.14v-192.44h-222.3v-9.54h222.3V2153c-22.95-4.29-42.53-25.42-38.65-64.18 5.92-59.3 39.58-121.68 15.74-207.53a39.952 39.952 0 00-17.24-3.89"/></clipPath><clipPath id="B" clipPathUnits="userSpaceOnUse"><path d="M4445.62 1877.4h100.379v890.551H4445.62z"/></clipPath><clipPath id="D" clipPathUnits="userSpaceOnUse"><path d="M4445.62 1877.4h-799.68c-22.17 0-40.14 17.98-40.14 40.15v810.26c0 22.17 17.97 40.14 40.14 40.14h799.68V1877.4"/></clipPath><clipPath id="F" clipPathUnits="userSpaceOnUse"><path d="M4832.02 1881.29c23.84 85.85-9.82 148.23-15.74 207.53-3.88 38.76 15.7 59.89 38.65 64.18v-235.45c0-16-9.36-29.81-22.91-36.26"/></clipPath><linearGradient id="b" spreadMethod="pad" gradientTransform="matrix(3004.29 0 0 -3004.29 1760.15 2354.22)" gradientUnits="userSpaceOnUse" y2="0" x2="1" y1="0" x1="0"><stop offset="0" stop-color="#40d5e6"/><stop offset="1" stop-color="#57f"/></linearGradient><linearGradient id="d" spreadMethod="pad" gradientTransform="matrix(2508.3 0 0 -2508.3 1937.32 2487.21)" gradientUnits="userSpaceOnUse" y2="0" x2="1" y1="0" x1="0"><stop offset="0" stop-color="#404b61"/><stop offset=".468" stop-color="#404b61"/><stop offset="1" stop-color="#2f3e5c"/></linearGradient><linearGradient id="f" spreadMethod="pad" gradientTransform="matrix(645.381 0 0 -645.381 5247.35 1561.07)" gradientUnits="userSpaceOnUse" y2="0" x2="1" y1="0" x1="0"><stop offset="0" stop-color="#3076a1"/><stop offset="1" stop-color="#639c38"/></linearGradient><linearGradient id="h" spreadMethod="pad" gradientTransform="matrix(842.637 0 0 -842.637 5191.28 1655.17)" gradientUnits="userSpaceOnUse" y2="0" x2="1" y1="0" x1="0"><stop offset="0" stop-color="#3076a1"/><stop offset="1" stop-color="#639c38"/></linearGradient><linearGradient id="j" spreadMethod="pad" gradientTransform="matrix(543.525 0 0 -543.525 4997.69 1782.66)" gradientUnits="userSpaceOnUse" y2="0" x2="1" y1="0" x1="0"><stop offset="0" stop-color="#3076a1"/><stop offset="1" stop-color="#639c38"/></linearGradient><linearGradient id="l" spreadMethod="pad" gradientTransform="matrix(164.795 0 0 -164.795 5148.75 1665.12)" gradientUnits="userSpaceOnUse" y2="0" x2="1" y1="0" x1="0"><stop offset="0" stop-color="#3076a1"/><stop offset="1" stop-color="#639c38"/></linearGradient><linearGradient id="n" spreadMethod="pad" gradientTransform="matrix(532.021 0 0 -532.021 4775.78 1632.46)" gradientUnits="userSpaceOnUse" y2="0" x2="1" y1="0" x1="0"><stop offset="0" stop-color="#3076a1"/><stop offset="1" stop-color="#639c38"/></linearGradient><linearGradient id="p" spreadMethod="pad" gradientTransform="scale(1797.329 -1797.329) rotate(-75.579 1.274 -1.96)" gradientUnits="userSpaceOnUse" y2="0" x2="1" y1="0" x1="0"><stop offset="0" stop-color="#3076a1"/><stop offset="1" stop-color="#639c38"/></linearGradient><linearGradient id="r" spreadMethod="pad" gradientTransform="matrix(196.68 0 0 -196.68 5294.7 1329.39)" gradientUnits="userSpaceOnUse" y2="0" x2="1" y1="0" x1="0"><stop offset="0" stop-color="#3076a1"/><stop offset="1" stop-color="#639c38"/></linearGradient><linearGradient id="t" spreadMethod="pad" gradientTransform="matrix(363.613 0 0 -363.613 5125.82 974.79)" gradientUnits="userSpaceOnUse" y2="0" x2="1" y1="0" x1="0"><stop offset="0" stop-color="#ff9340"/><stop offset="1" stop-color="#ffce45"/></linearGradient><linearGradient id="v" spreadMethod="pad" gradientTransform="matrix(363.613 0 0 -363.613 5125.82 974.79)" gradientUnits="userSpaceOnUse" y2="0" x2="1" y1="0" x1="0"><stop offset="0" stop-color="#c97332"/><stop offset="1" stop-color="#ffce45"/></linearGradient><linearGradient id="x" spreadMethod="pad" gradientTransform="scale(-1665.76 1665.76) rotate(-90 -.434 1.484)" gradientUnits="userSpaceOnUse" y2="0" x2="1" y1="0" x1="0"><stop offset="0" stop-color="#40d5e6"/><stop offset="1" stop-color="#57f"/></linearGradient><linearGradient id="z" spreadMethod="pad" gradientTransform="matrix(3294.85 0 0 -3294.85 19.736 493.16)" gradientUnits="userSpaceOnUse" y2="0" x2="1" y1="0" x1="0"><stop offset="0" stop-color="#40d5e6"/><stop offset="1" stop-color="#57f"/></linearGradient><linearGradient id="C" spreadMethod="pad" gradientTransform="matrix(3004.29 0 0 -3004.29 1760.15 2354.22)" gradientUnits="userSpaceOnUse" y2="0" x2="1" y1="0" x1="0"><stop offset="0" stop-color="#d1f5f9"/><stop offset="1" stop-color="#d6deff"/></linearGradient><linearGradient id="E" spreadMethod="pad" gradientTransform="matrix(2508.3 0 0 -2508.3 1937.32 2487.21)" gradientUnits="userSpaceOnUse" y2="0" x2="1" y1="0" x1="0"><stop offset="0" stop-color="#d1d4d9"/><stop offset=".468" stop-color="#d1d4d9"/><stop offset="1" stop-color="#cdd1d8"/></linearGradient><linearGradient id="G" spreadMethod="pad" gradientTransform="matrix(532.021 0 0 -532.021 4775.78 1632.46)" gradientUnits="userSpaceOnUse" y2="0" x2="1" y1="0" x1="0"><stop offset="0" stop-color="#cddee9"/><stop offset="1" stop-color="#dae7cf"/></linearGradient></defs><path d="M0 666.667h885.913V0H0z" fill="#f7f7f7"/><g clip-path="url(#a)" transform="matrix(.13333 0 0 -.13333 0 666.667)"><path d="M4546 1352.67H1841.72v1908.37c0 52.31 42.42 94.73 94.74 94.73h2514.8c52.33 0 94.74-42.42 94.74-94.73v-493.09h-100.38v489.7h-2508.3V1716.77h2508.3v160.63H4546v-524.73" fill="url(#b)"/></g><g clip-path="url(#c)" transform="matrix(.13333 0 0 -.13333 0 666.667)"><path d="M4445.62 1716.77h-2508.3v1540.88h2508.3v-489.7h-799.68c-22.17 0-40.14-17.97-40.14-40.14v-810.26c0-22.17 17.97-40.15 40.14-40.15h799.68v-160.63" fill="url(#d)"/></g><path d="M139.676 231.99h82.003c-1.599-8.006-8.79-13.954-17.024-13.954-1.871 0-3.711.296-5.47.881l-.449.148-.27-.386a24.316 24.316 0 00-19.85-10.31c-9.23 0-17.539 5.126-21.683 13.378l-.228.452-.492-.12a13.54 13.54 0 00-3.254-.395c-6.286 0-11.751 4.29-13.283 10.307zm83.503 1.273h-85.07l.148-.758c1.366-7.006 7.55-12.093 14.702-12.093 1.033 0 2.061.107 3.066.319 4.432-8.423 13.043-13.634 22.591-13.634a25.59 25.59 0 0120.616 10.47 18.594 18.594 0 015.423-.803c9.256 0 17 6.63 18.41 15.765l.114.734M510.421 83.565c-.382 4.044-1.653 29.667 25.18 43.555 26.836-13.888 25.564-39.51 25.182-43.555-16.666-.104-23.448-4.745-25.182-6.218-1.732 1.473-8.516 6.114-25.18 6.218zm25.18 44.984l-.288-.148c-30.189-15.413-26.134-45.262-26.09-45.562l.08-.544h.548c19.194 0 25.226-6.186 25.285-6.247l.468-.497.465.498c.058.06 6.09 6.246 25.283 6.246h.548l.081.544c.044.3 4.099 30.149-26.092 45.562l-.288.148" fill="#6aafe8"/><g clip-path="url(#e)" transform="matrix(.13333 0 0 -.13333 0 666.667)"><path d="M5255.93 1060.57c-34.08 155.74 39.56 194.61 110.77 232.18 58.2 30.73 113.17 59.73 110.24 151.52-3.88 121.68 79.01 165.94 152.14 205 54.41 29.06 105.79 56.5 113.45 111.87 18.45 133.22 141.33 298.8 142.56 300.45l7.64-5.71c-1.23-1.62-122.65-165.27-140.75-296.06-8.33-60.16-61.81-88.72-118.41-118.96-74.14-39.59-150.8-80.53-147.11-196.29 3.12-97.73-57.09-129.51-115.31-160.24-71.19-37.57-138.44-73.06-105.91-221.72l-9.31-2.04" fill="url(#f)"/></g><g clip-path="url(#g)" transform="matrix(.13333 0 0 -.13333 0 666.667)"><path d="M5203.25 1176.7c30.98-42.92 59.1-64.77 85.88-66.76 37.43-2.77 71.54 32.77 111.04 73.91 50.9 53.01 108.58 113.08 195.78 120.62 104.73 9.07 114.05 103.14 123.07 194.1 8.06 81.31 15.66 158.11 90.15 168.91 70.2 10.17 115.37 33.73 134.27 70.05 15.76 30.27 12.47 69.36-9.55 113.04-20.85 41.36 9.23 99.62 41.07 161.27 34.55 66.89 70.26 136.07 34.47 178.71-5.39 6.42-11.93 9.68-19.98 9.98-40.43 1.34-109.03-69.25-181.63-144.09-84.15-86.76-171.14-176.42-234.8-176.43l-2.43.04c-57.53 2.14-77.45-64.94-100.5-142.59-25.32-85.36-54.03-182.11-142.78-203.24-70.81-16.87-101.79-26.27-110.36-40.84-6.06-10.27-1.89-25.12 5.02-49.73 5.08-18.12 11.39-40.67 16.16-70.34 18.6-115.96-24.11-182.11-34.88-196.61zm90.08-76.44c-1.63 0-3.26.06-4.91.18-30.8 2.28-60.98 25.69-95.01 73.63l-2.13 3.01 2.39 2.82c.54.67 55.08 67.12 35.06 191.9-4.68 29.12-10.92 51.39-15.94 69.28-7.33 26.12-12.16 43.36-4.06 57.13 10.29 17.47 38.08 26.63 116.38 45.28 83.38 19.86 111.25 113.8 135.85 196.68 23.17 78.06 45.11 151.69 109.98 149.41 59.62-2.28 150.16 91.14 230.03 173.49 74.13 76.41 144.08 148.4 188.82 146.98 10.74-.39 19.8-4.89 26.93-13.38 39.88-47.49 2.68-119.54-33.29-189.21-30.69-59.43-59.68-115.57-41.03-152.6 23.45-46.52 26.74-88.63 9.49-121.73-20.39-39.18-67.95-64.45-141.35-75.08-67.11-9.74-74.35-82.92-82.04-160.41-8.95-90.43-19.12-192.91-131.73-202.66-83.62-7.24-139.99-65.94-189.72-117.73-39.55-41.19-73.93-76.99-113.72-76.99" fill="url(#h)"/></g><g clip-path="url(#i)" transform="matrix(.13333 0 0 -.13333 0 666.667)"><path d="M5098.29 2422.88c-7.45 0-13.04-1.75-17.21-5.28-17.53-14.92-16.17-65.79-13.69-158.15.82-30.64 1.75-65.37 2.21-105.56 1.06-91.28 28.6-149.52 48.7-192.05 27.67-58.57 44.38-93.91-46.01-146-35.43-20.43-55.93-43.93-62.65-71.85-13.03-54.19 28.86-118.74 69.38-181.17 15.73-24.25 32-49.3 44.9-73.54 16.74-31.43 33.68-79.7 51.62-130.81 34.87-99.32 74.39-211.9 118.79-215.94 16.95-1.51 34.78 13.84 52.99 45.7 42.68 74.69 40.25 139.22 37.45 213.96-3.74 99.91-7.99 213.16 97.78 380.33 42.48 67.17 57.21 120.08 44.99 161.75-14.95 51.01-67.57 75.57-114 97.23-34.38 16.04-64.09 29.9-70.11 52.09-2.97 10.97.03 22.73 9.17 35.98 28.79 41.69 38.33 73.09 29.17 96-13.19 33.03-66.81 48.34-117.53 58.95-63.88 13.38-85.63 54-103.11 86.62-13.09 24.43-24.39 45.52-49.71 50.33-4.91.94-9.28 1.41-13.13 1.41zm198.52-1289.99c-1.11 0-2.23.05-3.34.16-50.51 4.6-89.35 115.25-126.91 222.26-17.82 50.76-34.65 98.71-51.05 129.48-12.7 23.88-28.86 48.77-44.49 72.85-41.61 64.11-84.64 130.41-70.63 188.58 7.36 30.61 29.32 56.07 67.14 77.87 82.78 47.71 70.05 74.64 42.15 133.67-20.48 43.32-48.52 102.65-49.61 196.01-.46 40.13-1.38 74.82-2.21 105.43-2.64 98.4-3.96 147.78 17.05 165.65 8.7 7.4 20.87 9.3 38.29 5.99 29.8-5.67 42.68-29.74 56.33-55.2 17.4-32.5 37.13-69.32 96.66-81.78 55.87-11.69 109.61-27.63 124.43-64.76 10.43-26.1.57-60.43-30.18-104.95-7.45-10.79-10.01-19.97-7.81-28.06 4.87-17.93 32.7-30.91 64.94-45.95 45.86-21.41 102.95-48.05 119.12-103.2 13.03-44.46-2.05-99.91-46.09-169.51-104.19-164.68-100-276.37-96.31-374.89 2.75-73.02 5.33-141.98-38.7-219.03-19.43-34.02-38.7-50.61-58.78-50.62" fill="url(#j)"/></g><g clip-path="url(#k)" transform="matrix(.13333 0 0 -.13333 0 666.667)"><path d="M5297.81 1073.84l-9.08 2.87c50.91 160.95-41.2 522.06-68.64 609.94-13.5 43.21-1.03 108.27 11.04 171.18 15.58 81.25 31.7 165.28-9.4 196.77-77.15 59.15-73.08 196-72.88 201.8l9.52-.36c-.04-1.36-4.07-137.73 69.16-193.88 45.77-35.07 29.09-122.03 12.95-206.12-11.83-61.76-24.08-125.61-11.31-166.55 33.97-108.68 119.44-455.09 68.64-615.65" fill="url(#l)"/></g><g clip-path="url(#m)" transform="matrix(.13333 0 0 -.13333 0 666.667)"><path d="M5229.57 1111.08c-37.23 0-71.77 131.27-119.07 191.46-55.8 71.02-78.63 182.63-144.58 263.79-65.94 81.16-251.1 106.52-169.93 235.88 17.92 28.55 29.28 54.75 36.03 79.08 13.55 6.45 22.91 20.26 22.91 36.26V2153c2.93.55 5.93.83 8.93.83 19.61 0 39.78-11.68 48.8-34.57 65.95-167.4 194.74-139.11 179.94-212.31-33.54-165.89 68.63-188.43 170.23-262 101.59-73.55 0-145.81-5.07-259.95-5.07-114.14 37.9-196.6-7.76-260.01-6.96-9.66-13.74-13.91-20.43-13.91" fill="url(#n)"/></g><path d="M709.856 518.625c-.075-.449-7.595-45.028-24.433-57.245-17.171-12.457-20.291-23.965-26.288-51.104l1.241-.273c5.924 26.802 8.997 38.165 25.792 50.35 17.261 12.522 24.636 56.211 24.943 58.064l-1.255.208" fill="#fff"/><g clip-path="url(#o)" transform="matrix(.13333 0 0 -.13333 0 666.667)"><path d="M5209.98 1122.29s37.52 92.8-30.77 224.7c-68.3 131.92-123.57 111.62 41.06 213.1 164.62 101.47 1.03 421.1 141.17 461.68 140.14 40.59 261.9 557.93 368.45 492.05 106.55-65.87-35.52-319.55 40.58-395.65 76.11-76.11 86.26-172.95-71.02-251.35-157.29-78.42 111.62-377.77-101.47-469.09s-151.97-449.41-388-275.44" fill="url(#p)"/></g><path d="M703.343 530.15c-.032-.158-3.087-16 6.565-36.47 9.833-20.855 14.54-43.652 12.592-60.985-1.057-9.387 4.955-13.058 10.772-16.61 5.725-3.496 11.645-7.11 11.319-16.358-.295-8.355 3.241-27.94 3.392-28.77l1.25.228c-.037.202-3.664 20.279-3.372 28.498.352 9.99-5.89 13.801-11.928 17.486-5.728 3.499-11.137 6.802-10.17 15.383 1.973 17.557-2.775 40.61-12.706 61.668-9.461 20.067-6.501 35.525-6.469 35.679l-1.245.252" fill="#fff"/><path d="M726.301 442.73c6.38-5.925 14.818-6.78 13.06 2.011-1.757 8.79-7.786 11.303-4.77 16.828 3.013 5.526 8.036 11.051-.503 17.834-8.54 6.781-13.312 7.533-15.824 20.345-2.512 12.808-2.01 21.556-13.061 22.103-11.052.545-6.782-15.575-3.266-22.859 0 0 5.275-8.31 1.758-19.225-3.516-10.914-10.298-16.808 4.02-20.516 14.316-3.71 14.285-12.524 18.586-16.52" fill="#fff"/><g clip-path="url(#q)" transform="matrix(.13333 0 0 -.13333 0 666.667)"><path d="M5295.01 1024.71c-.27 11.75-5.96 288.5 45.81 335.08 52.86 47.58 63.01 131.66 64.36 177.53 1.77 59.79 78.99 95.28 82.29 96.75l3.91-8.68c-.75-.34-75.09-34.53-76.68-88.34-1.7-57.9-14.79-136.89-67.52-184.34-48.53-43.69-42.71-324.95-42.64-327.79l-9.53-.21" fill="url(#r)"/></g><g clip-path="url(#s)" transform="matrix(.13333 0 0 -.13333 0 666.667)"><path d="M5489.43 1137.66l-85.87-325.762h-191.89l-85.85 325.762h363.61" fill="url(#t)"/></g><g clip-path="url(#u)" transform="matrix(.13333 0 0 -.13333 0 666.667)"><path d="M5489.43 1137.66s-189.02-35.49-189.02-325.762h-88.74l-85.85 325.762h363.61" fill="url(#v)"/></g><path d="M280.89 405.29h-33.697v-3.815h33.696v3.816" fill="#1487e3"/><path d="M240.16 296.207h-53.78V227.43h1.27v67.505h52.51v1.27M467.796 250.89h-1.27v-70.92h68.44v-59.642h1.271v60.913h-68.441v69.648M688.893 329.89h-71.209v-1.273h69.937V287.27h1.272v42.62" fill="#78c2ff"/><path d="M156.513 387.353s-1.524 21.395 2.655 23.955c2.619 1.605 13.06 7.015 12.75 8.03-.309 1.015-5.895 9.026-5.895 9.026s-20.056-13.207-20.703-17.368c-.632-4.067.987-31.327 3.744-32.583 2.065-.941 3.155-.162 5.759 1.77 3.65 2.71 1.69 7.17 1.69 7.17" fill="#ff7e55"/><path d="M154.181 543.052s-.624 4.33-.7 4.979c-.078.65-6.938-.383-6.938-.383l-.556-5.153s7.338-.054 8.194.557" fill="#424773"/><path d="M153.555 547.48s2.17 2.61 4.274 3.747c2.103 1.136 5.404 1.586 6.65 2.765.896.85 3.268 4.505-5.464 4.432-8.732-.073-12.94.517-13.875-.885-.936-1.402 1.353-10.351 1.353-10.351s2.067.743 7.062.292" fill="#292c47"/><path d="M188.515 543.052s-.626 4.33-.703 4.979c-.079.65-6.937-.383-6.937-.383l-.555-5.153s7.339-.054 8.195.557" fill="#424773"/><path d="M187.887 547.48s2.172 2.61 4.274 3.747c2.103 1.136 9.839 2.07 11.082 3.248.897.849 2.389 4.27-9.895 3.949-8.73-.228-12.94.517-13.877-.885-.935-1.402 1.354-10.351 1.354-10.351s1.948.793 7.062.292M156.643 431.815s-6.446 10.242-5.966 19.498c.482 9.259-.573 19.148-1.542 28.818-1.079 10.781-4.02 33.217-4.18 38.982-.162 5.768.21 27.468.21 27.468l11.18-.084s3.97-43.837 5.894-48.39c1.922-4.554 9.817-37.487 10.138-41.13.32-3.641-15.734-25.162-15.734-25.162" fill="#292c47"/><path d="M190.575 433.203s2.546 25.166 3.188 30.833c.64 5.665.202 30.216.521 33.759.323 3.54-2.141 40.995-2.748 48.126l-12.29-.077s-.847-30.299-.847-45.019c0-14.721-3.778-31.857-8.106-41.57-4.328-9.714-14.234-9.943-16.894-27.963 0 0 33.574-3.804 37.176 1.91" fill="#292c47"/><path d="M163.452 345.47s7.68-5.131 13.073.365c5.394 5.494 8.044 18.416 4.172 20.996-3.873 2.578-10.444 3.254-13.562-.246-3.119-3.497-6.448-8.834-7.266-12.73-.82-3.899 1.635-6.746 3.583-8.386" fill="#eea886"/><path d="M178.085 367.7s-.1 5.399.495 6.55c.596 1.15-11.208 1.18-11.208 1.18s-.959-6.26-2.776-11.547c-1.817-5.29 13.49 3.817 13.49 3.817" fill="#eea886"/><path d="M164.892 363.796s1.101 1.121 4.219-.15c3.117-1.27 6.05-6.507 7.289-7.297 1.243-.792 1.067-1.589 1.067-1.589l1.138 1.037 1.456-.249s-2.217-3.543-.612-5.579c1.606-2.037-4.988-11.988-14.514-5.912 0 0-7.455 4.078-6.098 8.543 1.36 4.467 3.738 9.359 6.055 11.196" fill="#754836"/><path d="M179.28 374.11s-.036-2.197-1.033-2.409c-.996-.21-11-1.173-12.224-.69v2.56s2.358 1.45 13.257.54" fill="#e2d2ca"/><path d="M176.864 353.161c-.36-.718-2.808-2.436-3 .066-.192 2.502 2.407 5.193 3.38 4.682.975-.512.535-2.929-.38-4.748" fill="#eea886"/><path d="M161.232 346.79s-10.984 2.946 3.215 16.58l-3.215-16.58" fill="#754836"/><path d="M259.367 405.19l-11.194-.105c.967-.561 2.528-1.572 2.183-2.033-.493-.656-3.663.785-4.95.917-1.182.12-3.162-.032-4.665.516l-3.534 1.507 3.24 2.999s5.854.84 7.568.96c2.786.196 11.313-3.123 11.453-3.627.255-.907-.101-1.135-.101-1.135" fill="#eea886"/><path d="M193.892 377.157c-7.119-1.25-14.612-3.046-14.612-3.046l-13.257-.542s-12.167 2.679-16.959 4.844c-.455.206-.455 10.855-1.704 13.647l3.973 8.381s2.295 16.603 2.771 23.986c.219 3.39-4.732 31.786-4.732 31.786s5.304 1.562 14.353 2.559c9.048.997 31.656-.36 31.798-1.428.144-1.07-4.378-39.793-4.579-41.799-.307-3.077.89-17.298.89-17.298 1.705 2.288 11.56 10.878 16.373 13.608 3.422 1.941 11.818.754 14.292.504 5.352-.55 20.138-1.607 20.428-2.132.23-.315-.851-5.707-1.47-5.914-.541-.18-19.629-1.122-24.417-.876-1.943.103-8.28-6.974-8.28-6.974s-10.94-17.542-14.868-19.306" fill="#ff7e55"/><path d="M112.361 323.568h35.043v30.747l-5.35-5.348h-29.693v-25.399" fill="#ffcb55"/><path d="M643.76 241.6h31.776v-31.776H643.76zm32.91 1.136h-34.046v-34.047h34.047v34.047M684.613 220.037h75.66v-6.052h-75.66zm76.795 1.135h-77.927v-8.323h77.927v8.323M643.76 258.741h116.513v-6.052H643.76zm117.648 1.135H642.624v-8.321h118.784v8.321M643.76 274.724h73.388v-6.052H643.76zm74.523 1.136h-75.659v-8.324h75.659v8.324M684.613 235.913h50.503v-6.052h-50.503zm51.639 1.136h-52.77v-8.324h52.77v8.324" fill="#6aafe8"/><path d="M630.236 292.824h143.561v-101.1H630.236zm144.697 1.135H629.101v-103.37h145.832v103.37M577.681 144.295h-10.91v-1.272h9.64v-9.631h1.27v10.903M504.31 144.295h-10.913v-10.903h1.274v9.63h9.64v1.273M494.675 70.928h-1.272V60.016h10.904v1.272h-9.632v9.64M577.681 70.924h-1.27v-9.63h-9.64V60.02h10.91v10.903M577.681 117.1h-1.27V87.216h1.27V117.1M494.67 117.1h-1.273V87.216h1.274V117.1" fill="#6aafe8"/><path d="M187.016 219.999a3.403 3.403 0 00-3.4 3.397 3.403 3.403 0 003.4 3.399 3.401 3.401 0 003.397-3.399 3.401 3.401 0 00-3.397-3.397zm0 8.068a4.675 4.675 0 01-4.67-4.671 4.675 4.675 0 014.67-4.67 4.675 4.675 0 014.67 4.67 4.675 4.675 0 01-4.67 4.67M535.601 112.895a3.403 3.403 0 00-3.398 3.398 3.403 3.403 0 003.398 3.399 3.403 3.403 0 003.399-3.399 3.402 3.402 0 00-3.399-3.398zm0 8.069a4.676 4.676 0 01-4.669-4.67 4.675 4.675 0 014.67-4.67 4.676 4.676 0 014.67 4.67 4.677 4.677 0 01-4.67 4.67M688.259 280.056a3.405 3.405 0 00-3.4 3.399 3.405 3.405 0 003.4 3.398 3.403 3.403 0 003.398-3.398 3.403 3.403 0 00-3.398-3.399zm0 8.07a4.677 4.677 0 01-4.671-4.671 4.677 4.677 0 014.67-4.671 4.676 4.676 0 014.67 4.67 4.676 4.676 0 01-4.67 4.671" fill="#78c2ff"/><path d="M187.205 97.115h29.514V67.6h-29.514zm30.786 1.27h-32.056V66.328h32.056v32.057" fill="#a1d4ff"/><path d="M202.597 90.008h-1.27V75.067h1.27v14.941" fill="#a1d4ff"/><path d="M209.432 83.173h-14.94v-1.272h14.94v1.272M661.952 135.784h43.277v-30.168h-43.277zm44.55 1.272h-45.823v-32.71H706.5v32.71" fill="#a1d4ff"/><path d="M683.59 124.157l-22.678-18.685.81-.981 21.869 18.02 21.872-18.02.808.981-22.68 18.685" fill="#a1d4ff"/><path d="M705.405 136.857L688.96 119.52l.924-.876 16.445 17.34-.923.874M661.777 136.857l-.922-.874 16.445-17.34.923.876-16.446 17.338M298.397 159.116a2.815 2.815 0 10-.007 5.629 2.815 2.815 0 00.007-5.629zm-.012 6.581a3.77 3.77 0 01-3.061-5.952 3.77 3.77 0 016.785 1.559 3.741 3.741 0 01-.646 2.81 3.737 3.737 0 01-2.444 1.53 3.76 3.76 0 01-.634.053zm-2.357 1.586l.279.106a5.756 5.756 0 001.581.363l.296.025.41 1.068 1.877-.316.036-1.142.273-.123a5.81 5.81 0 001.373-.859l.23-.193 1.044.467 1.102-1.551-.782-.833.106-.28a5.797 5.797 0 00.364-1.58l.026-.298 1.066-.408-.314-1.877-1.144-.037-.123-.272a5.83 5.83 0 00-.859-1.375l-.193-.228.467-1.043-1.55-1.104-.834.782-.279-.107a5.827 5.827 0 00-1.58-.361l-.296-.027-.41-1.068-1.877.316-.037 1.144-.273.121a5.85 5.85 0 00-1.375.86l-.227.192-1.044-.465-1.104 1.55.783.834-.108.279a5.795 5.795 0 00-.363 1.58l-.025.297-1.068.41.317 1.875 1.144.038.12.272c.222.497.512.96.862 1.374l.192.228-.466 1.044 1.55 1.104zm1.953 2.633l-.477-1.247a6.83 6.83 0 01-1.253-.286l-.974.912-2.822-2.01.545-1.217a6.619 6.619 0 01-.684-1.09l-1.335-.043-.574-3.418 1.246-.477c.055-.428.152-.847.288-1.253l-.913-.974 2.01-2.822 1.217.544c.341-.262.705-.491 1.09-.683l.043-1.335 3.416-.574.477 1.245c.427.056.848.152 1.255.288l.973-.913 2.824 2.009-.545 1.219c.263.34.49.705.683 1.09l1.334.042.575 3.417-1.245.477a6.8 6.8 0 01-.29 1.255l.915.972-2.01 2.824-1.218-.544c-.34.261-.704.49-1.09.683l-.043 1.333-3.418.576M272.17 149.045a6.949 6.949 0 00-5.675 2.92 6.91 6.91 0 00-1.194 5.19 6.915 6.915 0 002.826 4.51 6.964 6.964 0 009.701-1.634 6.916 6.916 0 001.192-5.188 6.909 6.909 0 00-2.827-4.511 6.917 6.917 0 00-4.024-1.287zm-.02 15.178a8.193 8.193 0 01-4.76-1.522c-3.695-2.63-4.562-7.777-1.933-11.473 2.631-3.696 7.776-4.563 11.474-1.932 3.696 2.63 4.564 7.777 1.933 11.472a8.222 8.222 0 01-6.715 3.455zm-5.34 4.664l.371.141c1.208.464 2.478.753 3.771.865l.397.035.976 2.547 5.079-.856.087-2.726.362-.162a13.826 13.826 0 003.28-2.052l.306-.256 2.489 1.11 2.985-4.197-1.864-1.987.142-.372a13.87 13.87 0 00.865-3.77l.033-.398 2.548-.976-.857-5.078-2.725-.087-.163-.363a13.834 13.834 0 00-2.052-3.278l-.256-.306 1.11-2.489-4.194-2.987-1.99 1.866-.37-.143a13.83 13.83 0 00-3.77-.864l-.4-.035-.973-2.546-5.08.854-.086 2.727-.364.163a13.88 13.88 0 00-3.28 2.052l-.304.256-2.49-1.111-2.985 4.196 1.865 1.988-.144.372a13.868 13.868 0 00-.864 3.77l-.034.398-2.547.975.856 5.08 2.727.085.161.364c.53 1.187 1.22 2.29 2.053 3.28l.255.305-1.11 2.488 4.197 2.987zm4.7 5.014l-1.066-2.781a15.103 15.103 0 01-3.34-.764l-2.17 2.036-5.894-4.195 1.213-2.717a15.15 15.15 0 01-1.817-2.905l-2.977-.095-1.202-7.133 2.782-1.064c.128-1.142.385-2.263.765-3.342l-2.036-2.169 4.192-5.893 2.719 1.213a15.167 15.167 0 012.906-1.819l.094-2.976 7.133-1.202 1.065 2.781c1.14.13 2.26.385 3.342.767l2.169-2.038 5.892 4.195-1.213 2.716c.713.896 1.322 1.87 1.82 2.907l2.974.094 1.203 7.134-2.781 1.064a15.08 15.08 0 01-.767 3.341l2.039 2.17-4.196 5.893-2.716-1.214a15.126 15.126 0 01-2.907 1.819l-.093 2.976-7.134 1.201" fill="#a1d4ff"/><path d="M105.114 177.293c-11.263 0-20.424-9.164-20.424-20.426 0-11.263 9.161-20.426 20.424-20.426s20.426 9.163 20.426 20.426h-1.272c0-10.562-8.593-19.154-19.154-19.154-10.562 0-19.154 8.592-19.154 19.154 0 10.561 8.592 19.154 19.154 19.154zm0 3.298c-13.08 0-23.724-10.643-23.724-23.724h1.27c0 12.381 10.074 22.452 22.454 22.452s22.453-10.071 22.453-22.452c0-12.38-10.073-22.452-22.453-22.452v-1.272c13.08 0 23.724 10.642 23.724 23.724 0 13.081-10.643 23.724-23.724 23.724" fill="#78c2ff"/><path d="M102.208 164.727l-8.557-8.558.899-.898 7.658 7.657 13.471-13.47.899.898-14.37 14.37" fill="#78c2ff"/><g clip-path="url(#w)" transform="matrix(.13333 0 0 -.13333 0 666.667)"><path d="M4545.89 1641.88H1842.67L1546.85 536.211H4841.7L4545.89 1641.88" fill="url(#x)"/></g><path d="M259.325 473.613h22.144c.926 0 1.624.72 1.451 1.496l-2.144 9.634c-.133.593-.743 1.022-1.45 1.022H256.8c-.945 0-1.648-.746-1.441-1.534l2.524-9.632c.15-.575.748-.986 1.441-.986M291.624 473.613h16.74l-2.227 12.152h-17.06l2.547-12.152M316.736 473.613h16.74l-1.75 12.152-17.062.018 2.072-12.17M341.847 473.613h16.741l-1.273 12.152h-17.06l1.592-12.152M366.959 473.613H383.7l-.797 12.152h-17.059l1.115-12.152M392.07 473.613h16.742l-.317 12.152-17.062.018.636-12.17M593.02 473.613h-25.112l2.705 12.152h25.59l-3.183-12.152M559.537 473.613h-16.741l2.23 12.152h17.058l-2.547-12.152M534.427 473.613h-16.743l1.75 12.152 17.063.018-2.07-12.17M509.315 473.613h-16.743l1.273 12.152h17.06l-1.59-12.152M484.203 473.613H467.46l.797 12.152h17.059l-1.113-12.152M459.09 473.613h-16.742l.32 12.152 17.06.018-.637-12.17M417.181 473.613h16.743l.276 12.152h-17.019v-12.152M251.959 494.82h34.984l-1.995 12.537h-35.645l2.656-12.537M598.481 494.82H555.24l2.464 12.537h44.062l-3.284-12.537M546.59 494.82h-17.295l1.97 12.537h17.624l-2.298-12.537M520.647 494.82h-17.298l1.479 12.537h17.624l-1.805-12.537M494.703 494.82h-17.298l.984 12.537h17.626l-1.312-12.537M468.757 494.82H451.46l.492 12.537h17.625l-.82-12.537M246.733 517.167h35.764l-2.609 12.452h-36.417l3.262-12.452M291.439 517.167h17.881l-2.12 12.452h-18.208l2.447-12.452M318.261 517.167h134.104l.499 12.452h-136.56l1.957-12.452M461.317 517.167h17.88l.979 12.452h-18.208l-.65-12.452M488.14 517.167h17.881l1.468 12.452H489.28l-1.14-12.452M514.963 517.167h17.88l1.958 12.452h-18.208l-1.63-12.452M541.785 517.167h17.882l2.446 12.452h-18.208l-2.12-12.452M568.61 517.167h35.762l3.261 12.452H571.22l-2.61-12.452M442.848 494.82h-17.156v12.537h17.485l-.329-12.537M416.904 494.82h-17.296l-.495 12.537h17.626l.165-12.537M390.959 494.82h-17.295l-.987 12.537h17.626l.656-12.537M365.015 494.82h-17.296l-1.48 12.537h17.626l1.15-12.537M339.07 494.82h-17.297l-1.972 12.537h17.626l1.642-12.537M313.124 494.82h-17.296l-2.463 12.537h17.626l2.133-12.537M260.143 465.976l2.841-10.85h8.128l-2.652 10.85h-8.317M279.241 455.127h16.256l-2.274 10.849h-16.54l2.558-10.85M303.627 455.127h16.256l-1.847 10.849h-16.541l2.132-10.85M328.012 455.127h16.256l-1.421 10.849h-16.54l1.705-10.85M352.396 455.127h16.257l-.994 10.849h-16.542l1.279-10.85M376.781 455.127h16.258l-.568 10.849h-16.542l.852-10.85M401.167 455.127h16.257l-.143 10.849h-16.54l.426-10.85M425.552 455.127h16.257l.284 10.849h-16.541v-10.85M449.937 455.127h16.258l.71 10.849h-16.541l-.427-10.85M474.323 455.127h16.257l1.137 10.849h-16.541l-.853-10.85M498.708 455.127h16.257l1.563 10.849h-16.541l-1.279-10.85M523.093 455.127h16.258l1.989 10.849h-16.541l-1.706-10.85M547.479 455.127h16.256l2.417 10.849h-16.541l-2.132-10.85M571.864 455.127h16.256l2.843 10.849H574.42l-2.557-10.85" fill="#fff"/><g clip-path="url(#y)" transform="matrix(.13333 0 0 -.13333 0 666.667)"><path d="M4755.62 450.129h-3122.7c-47.53 0-86.07 38.543-86.07 86.082H4841.7c0-47.539-38.54-86.082-86.08-86.082" fill="url(#z)"/></g><path d="M476.973 547.533a5.375 5.375 0 00-5.305-4.498h-91.531a5.374 5.374 0 00-5.302 4.498l-5.719 34.604c-.541 3.275 1.985 6.251 5.303 6.251h102.969a5.375 5.375 0 005.304-6.25l-5.719-34.605" fill="#4d78eb"/><path d="M318.148 253.56h-37.259v-3.815h37.259v3.815M355.475 282.284h-26.9v-3.813h26.9v3.813" fill="#e0e0e0"/><path d="M377.515 282.284h-17.85v-3.813h17.85v3.813M299.164 354.523h-17.85v-3.816h17.85v3.816" fill="#1487e3"/><path d="M424.143 282.284h-43.099v-3.813h43.099v3.813M309.007 340.053h-27.694v-3.814h27.694v3.814M336.825 368.884H319.92v-3.813h16.906v3.813" fill="#e0e0e0"/><path d="M314.81 368.884h-33.497v-3.813h33.496v3.813" fill="#1487e3"/><path d="M299.788 383.248h-18.475v-3.816h18.475v3.816" fill="#e0e0e0"/><path d="M351.844 253.56h-26.45v-3.815h26.45v3.815" fill="#78c2ff"/><path d="M351.844 296.648h-26.45v-3.815h26.45v3.815" fill="#1487e3"/><path d="M323.472 311.01h-11.301v-3.815h11.301v3.816" fill="#e0e0e0"/><path d="M326.255 325.584H300.87v-3.813h25.384v3.813" fill="#78c2ff"/><path d="M365.132 325.584h-35.041v-3.813h35.041v3.813M307.763 311.116h-26.45v-3.815h26.45v3.815M297.007 325.584h-15.694v-3.813h15.694v3.813" fill="#1487e3"/><path d="M343.607 311.116H328.8v-3.815h14.807v3.815M296.561 397.61h-14.804v-3.814h14.804v3.813" fill="#ff8761"/><path d="M307.656 282.284h-26.448v-3.813h26.448v3.813M331.047 354.523h-26.45v-3.816h26.45v3.816M331.372 383.248h-26.448v-3.816h26.448v3.816M378.356 383.248h-26.448v-3.816h26.448v3.816M318.91 296.648h-37.702v-3.815h37.703v3.815M484.333 253.56h-26.448v-3.815h26.448v3.815M390.112 397.61h-26.448v-3.814h26.448v3.813M510.268 253.56h-17.707v-3.815h17.707v3.815M570.167 267.921h-17.704v-3.813h17.704v3.813" fill="#78c2ff"/><path d="M392.664 253.56h-33.699v-3.815h33.699v3.815M523.956 267.921H490.26v-3.813h33.696v3.813M482.63 282.284h-33.698v-3.813h33.697v3.813M438.757 296.648H405.06v-3.815h33.697v3.815" fill="#1487e3"/><path d="M510.824 282.284h-23.955v-3.813h23.955v3.813" fill="#78c2ff"/><path d="M451.281 253.56h-33.696v-3.815h33.696v3.815M398.892 296.648h-19.757v-3.815h19.757v3.815M383.421 354.735h-19.757v-3.816h19.757v3.816" fill="#ff8761"/><path d="M411.228 253.56h-12.336v-3.815h12.336v3.815M371.299 296.648h-12.334v-3.815H371.3v3.815M544.419 267.921h-12.336v-3.813h12.336v3.813" fill="#e0e0e0"/><path d="M300.187 267.921h-19.298v-3.813h19.298v3.813M347.61 340.159h-15.233v-3.815h15.234v3.815M311.153 267.921h-6.229v-3.813h6.23v3.813" fill="#1487e3"/><path d="M484.333 267.921h-51.5v-3.813h51.5v3.813M434.921 383.248h-51.5v-3.816h51.5v3.816" fill="#e0e0e0"/><path d="M322.09 267.921h-6.358v-3.813h6.357v3.813" fill="#ff8761"/><path d="M428.076 267.921h-16.848v-3.813h16.848v3.813" fill="#1487e3"/><path d="M444.925 282.284h-16.849v-3.813h16.85v3.813M358.288 397.61H341.44v-3.814h16.848v3.813" fill="#ff8761"/><path d="M406.768 267.921h-35.85v-3.813h35.85v3.813M358.495 354.735H337.55v-3.816h20.944v3.816M346.676 383.248h-10.473v-3.816h10.473v3.816" fill="#1487e3"/><path d="M365.833 267.921h-12.336v-3.813h12.336v3.813" fill="#78c2ff"/><path d="M324.315 282.284H311.98v-3.813h12.334v3.813M326.773 340.159H314.44v-3.815h12.333v3.815" fill="#ff8761"/><path d="M348.793 267.921h-21.49v-3.813h21.49v3.813" fill="#1487e3"/><g clip-path="url(#A)" transform="matrix(.13333 0 0 -.13333 0 666.667)"><path d="M4546 1877.4h309.859v890.551H4546z" fill="#fdfdfd"/></g><g clip-path="url(#B)" transform="matrix(.13333 0 0 -.13333 0 666.667)"><path d="M4445.62 1877.4h100.379v890.551H4445.62z" fill="url(#C)"/></g><g clip-path="url(#D)" transform="matrix(.13333 0 0 -.13333 0 666.667)"><path d="M4445.62 1877.4h-799.68c-22.17 0-40.14 17.98-40.14 40.15v810.26c0 22.17 17.97 40.14 40.14 40.14h799.68V1877.4" fill="url(#E)"/></g><g clip-path="url(#F)" transform="matrix(.13333 0 0 -.13333 0 666.667)"><path d="M4832.02 1881.29c23.84 85.85-9.82 148.23-15.74 207.53-3.88 38.76 15.7 59.89 38.65 64.18v-235.45c0-16-9.36-29.81-22.91-36.26" fill="url(#G)"/></g><path d="M617.684 329.89h29.64v-1.273h-29.64z" fill="#dff0ff"/><path d="M629.337 366.967h-26.833a2.054 2.054 0 01-2.055-2.052v-4.146c0-1.133.92-2.053 2.055-2.053h26.833c1.136 0 2.055.92 2.055 2.053v4.146a2.053 2.053 0 01-2.055 2.052M629.337 382.415h-26.833a2.054 2.054 0 01-2.055-2.054v-4.144c0-1.133.92-2.053 2.055-2.053h26.833c1.136 0 2.055.92 2.055 2.053v4.144a2.053 2.053 0 01-2.055 2.054M629.337 397.863h-26.833a2.054 2.054 0 01-2.055-2.054v-4.142c0-1.136.92-2.055 2.055-2.055h26.833c1.136 0 2.055.919 2.055 2.055v4.142a2.053 2.053 0 01-2.055 2.054M553.812 388.247c-13.884 4.965-28.85.484-37.868-10.119a34.218 34.218 0 01-5.341-8.581c-.306-.7-.59-1.419-.851-2.148a34.307 34.307 0 01-.448-21.878c3.119-9.964 10.708-18.397 21.295-22.181a34.477 34.477 0 0110.574-2.008c14.534-.439 28.324 8.424 33.486 22.853 6.41 17.924-2.924 37.651-20.847 44.062zm31.679-47.935c-6.883-19.245-25.275-31.064-44.66-30.481a45.945 45.945 0 00-14.106 2.674c-14.118 5.052-24.244 16.299-28.404 29.586a45.767 45.767 0 00.599 29.182 46.018 46.018 0 008.257 14.31c12.031 14.142 31.991 20.118 50.51 13.498 23.906-8.553 36.354-34.862 27.804-58.769" fill="#4aafff"/><path d="M509.304 345.521l-10.983-3.43c4.16-13.287 14.286-24.534 28.404-29.586a45.945 45.945 0 0114.106-2.674l.342 11.501c-3.517.108-7.08.757-10.574 2.008-10.587 3.784-18.176 12.217-21.295 22.181" fill="#1a598c"/><path d="M510.603 369.547l-10.551 4.592a46.018 46.018 0 01-1.132-2.866 45.767 45.767 0 01-.599-29.182l10.983 3.43a34.307 34.307 0 00.448 21.878c.261.729.545 1.448.85 2.148" fill="#2273b5"/><path d="M507.177 385.583a45.742 45.742 0 01-7.125-11.444l10.55-4.592a34.218 34.218 0 005.342 8.581l-8.767 7.455" fill="#3788cc"/><path d="M557.552 383.059s-2.227-3.898 1.304-14.342c3.415-10.1 15.239-9.185 18.995-2.713 3.758 6.47 2.489 10.49-3.043 17.796-5.532 7.307-14.961 2.599-17.256-.741M585.012 562.743s.585 4.288.659 4.934c.072.643 6.508-.38 6.508-.38l.521-5.106s-6.883-.052-7.688.552" fill="#eea886"/><path d="M585.601 567.132s-2.04 2.584-4.01 3.71c-1.972 1.127-5.071 1.573-6.238 2.74-.841.84-3.065 4.465 5.126 4.39 8.189-.07 12.137.513 13.016-.876.877-1.39-1.27-10.255-1.27-10.255s-2.004.566-6.624.29" fill="#414773"/><path d="M540.455 562.743s.586 4.288.658 4.934c.074.643 6.508-.38 6.508-.38l.522-5.106s-6.883-.052-7.688.552" fill="#eea886"/><path d="M541.047 567.132s-2.04 2.584-4.012 3.71c-1.972 1.127-9.23 2.051-10.395 3.218-.843.843-2.243 4.23 9.281 3.912 8.188-.224 12.139.513 13.018-.876.877-1.39-1.271-10.255-1.271-10.255s-2.544.452-6.621.29" fill="#414773"/><path d="M582.845 455.945s3.3 10.252 2.866 19.088c-.435 8.836 1.705 18.506 2.58 27.736.977 10.29 4.969 34.65 5.112 40.155.146 5.503-.619 23.081-.619 23.081l-7.992.19s-6.71-42.586-8.45-46.931c-1.737-4.345-10.358-35.325-10.647-38.801-.29-3.478 17.15-24.518 17.15-24.518" fill="#2d314f"/><path d="M549.713 454.877s-4.852 27.11-5.433 32.519c-.577 5.408-.965 26.17-1.255 29.55-.289 3.38-1.93 44.23-3.476 49.25h8.911s9.15-29.694 9.15-43.745c0-14.051 6.057-30.546 9.967-39.815 3.912-9.272 12.864-9.49 15.268-26.69 0 0-29.878-6.523-33.132-1.069" fill="#2d314f"/><path d="M560.783 385.815s1.005 2.926 0 5.014c-1.006 2.087 12.841.835 12.841.835s-.625-4.315 1.184-7.864c1.808-3.55-14.025 2.015-14.025 2.015" fill="#eea886"/><path d="M583.488 458.18s-4.981 5.116-34.221-.797l.446-2.506 33.24 1.254.535 2.049" fill="#2b3b57"/><path d="M558.687 391.507s-5.115.521-6.576.8c-1.46.277-11.296-1.76-13.315-1.968-2.019-.208-10.623-6.103-10.901-6.8-.278-.695-5.234-13.244-5.512-15.958-.279-2.717-4.828-1.314-4.439.556.73 3.499 1.667 11.99 2.181 14.451.555 2.659 2.042 8.676 2.876 9.417.835.742 8.583 6.634 16.167 9.138 7.587 2.505 13.295 6.194 13.295 6.194h37.38s14.54-20.782 14.852-23.914c.312-3.131-10.155-23.943-12.243-26.554-2.088-2.609-5.107.852-5.107.852s6.256 18.355 7.09 20.964c.836 2.61-7.275 14.074-9.503 14.11-2.227.034-7.943-.698-10.484-.802-2.54-.105-5.22-1.218-5.22-1.218l-10.541.732" fill="#eea886"/><path d="M542.577 405.388s4.578 3.043 4.995 8.26c.417 5.22 2.088 13.465 2.923 16.283.836 2.82-.731 23.276-.94 24.737-.21 1.463 28.925 4.933 33.398 1.463 0 0 1.254-19.103 1.775-24.53.523-5.426 3.027-18.577 3.863-20.352.834-1.776 10.958-15.976 11.376-17.848 0 0-5.239-8.35-8.995-8.454 0 0-5.968 6.993-7.913 7.305-1.947.313-13.872-1.872-13.875-1.89 0 0-1.301 1.774-8.221-.315 0 0-8.242.929-9.582 1.1-1.624.209-12.908-1.415-12.908-1.415s-4.528 7.645-3.734 11.504l7.838 4.152" fill="#ffc655"/><path d="M522.644 369.21s-1.023-4.837.21-6.226c.7-.79 2.382-2.884 2.535-3.19.155-.309 1.962-1.347 1.962-1.847s-1.768-1.115-3.306.308c-1.538 1.422-2.498 1.73-3.113 1.576-.617-.154-1.5-5.267-1.577-6.535-.078-1.27-.567-4.615-1.36-4.383-.794.23-.755 1.691-.755 1.691s-.923-2.539-1.537-2.037c-.616.498-.539 1.73-.539 1.73s-1.155-1.424-1.461-.385a3.58 3.58 0 000 1.96s-1.194-.653-1.268.961c-.079 1.615.345 6.344 1.19 8.036.846 1.692 4.012 6.116 4.39 7.844.377 1.73 4.629.498 4.629.498M588.364 360.716s-3.477-5.847-4.661-6.368c-1.183-.523-2.852-.819-4.314-1.863-1.461-1.042-3.392-1.912-3.288-2.26.104-.348 1.827-.209 3.671.591 1.844.8 2.652.413 2.827-.004.174-.417-.983-3.365-1.54-4.061-.558-.696-4.523-4.686-3.862-5.278.662-.59 3.236 1.603 3.654 2.054 0 0-2.054-4.314-1.252-4.523.798-.21 2.294 1.321 2.294 1.321s-.172-3.686 3.794 2.298c0 0-.836-1.984.382-1.322 1.218.66 2.402 4.384 2.784 6.263.382 1.877 2.119 7.863 3.599 9.305 1.48 1.444-4.088 3.847-4.088 3.847" fill="#eea886"/><path d="M574.808 383.8s-1.832.163-5.73-1.183c-3.897-1.346-4.187-8.158-5.029-7.353-1.72 1.648-3.344.51-3.993-.464 0 0 1.901-2.504 1.02-3.712-.881-1.205-2.316-2.085-2.316-2.085s2.74-13.21 15.213-7.192c14.612 7.052.835 21.989.835 21.989" fill="#353a3d"/><path d="M560.783 390.83l.44-1.911s7.96-.162 12.302.468l.459 2.282s-5.563 2.523-13.201-.84" fill="#d4d8e8"/><path d="M562.747 373.593c.722-1.2 3.396-2.01 3.71 1.392.244 2.64-4.778 5.522-4.825 3.063-.045-2.46.633-3.655 1.115-4.455" fill="#eea886"/><path d="M522.455 368.113s-2.872.07-4.266 1.328c0 0-.09.8.232 1.428 0 0 2.49-1.161 4.4-1.378 0 0-.033-1.044-.366-1.378" fill="#e55353"/><path d="M519.068 368.828c-.264.628.03 1.353.657 1.619a1.234 1.234 0 10-.657-1.619" fill="#353a3d"/><path d="M448.517 266.75s4.106 6.96 5.839 8.098c2.355 1.543.879 3.103-.239 3.104-1.117.001-6.824.41-8.081-1.017-1.259-1.427-1.88-5.704-3.05-6.823-1.17-1.117-2.377-5.564.569-6.644 2.606-.957 4.962 3.283 4.962 3.283" fill="#6069a8"/><path d="M446.74 263.69s4.703 8.15 5.512 9.355c.81 1.204-1.527 1.202-2.975.63-1.446-.572-5.088-6.418-5.61-7.482-.624-1.27-.112-2.725-.112-2.725l3.185.223" fill="#202338"/><path d="M441.976 268.076l1.085 8.355.576.025-.18-6.01-1.481-2.37M407.804 266.75s4.107 6.96 5.839 8.098c2.354 1.543.88 3.103-.238 3.104-1.117.001-6.825.41-8.081-1.017-1.259-1.427-1.881-5.704-3.05-6.823-1.17-1.117-2.418-5.679.567-6.644 2.62-.848 4.963 3.283 4.963 3.283" fill="#6069a8"/><path d="M406.273 263.707s4.455 8.133 5.267 9.338c.81 1.204-1.528 1.202-2.975.63-1.448-.572-5.089-6.418-5.612-7.482-.622-1.27-.112-2.725-.112-2.725l3.432.239" fill="#202338"/><path d="M401.263 268.076l1.085 8.355.576.025-.179-6.01-1.482-2.37" fill="#6069a8"/><path d="M389.59 203.412l37.151 16.928s4.147 1.35 4.612 5.953c1.451 14.374 12.202 37.175 12.202 37.175 3.449 1.685 3.185.223 3.185.223-2.173-6.979-4.82-35.739-5.764-47.302-.2-2.449-.324-4.126-.352-4.662-.017-.366-.416-.842-1.104-1.399-5.099-4.135-26.076-12.693-26.076-12.693-15.75-.4-23.855 5.777-23.855 5.777" fill="#202338"/><path d="M382.587 210.681c1.149 10.042 15.485 8.892 15.485 8.892h17.373s-4.562 10.155-6.326 18.72c-1.87 9.091-6.278 25.175-6.278 25.175s.288.545 3.432.239c0 0 13.638-27.18 18.859-34.014 1.123-1.47 4.341-9.453 4.896-14.214.188-1.602.072-2.839-.527-3.34-.604-.506-1.988-1.458-3.834-2.623-5.444-3.432-14.894-8.715-20.16-9.897-7.052-1.586-18.206-4.556-18.206-4.556s-5.864 5.577-4.714 15.618" fill="#202338"/><path d="M394.41 133.33s-2.6-4.937-1.333-10.194c1.268-5.257 6.146-10.496 13.29-8.09 7.142 2.406 12.916 7.954 8.634 14.37-4.281 6.416 3.876 9.313 1.796 12.367-2.077 3.053-1.29 6.241-.409 6.952.88.709 3.719 3.241 3.405 6.24-.312 2.997-13.857-8.738-13.857-8.738s-7.379-14.822-11.525-12.906" fill="#464240"/><path d="M416.181 196.43s-1.074 5.227-28.822-1.373c0 0 9.301-3.089 28.822 1.374" fill="#eb4747"/><path d="M387.044 196.524c-.432.821-.861 1.643-1.29 2.464 10.142.295 20.286.59 30.427.887-1.602-5.374-1.082-12.648-.801-18.171.343-6.745 4.067-11.435 3.672-18.257 2.005.325 2.352.386 4.363.693-3.075-8.756-4.127-13.095-13.674-16.465-3.109-1.098-5.15-1.315-8.516-1.038-11.057.911-14.392 1.042-19.822 11.062 8.501 1.354 7.101 4.406 9.68 12.864 1.257 4.124 2.57 8.726 1.896 13.076-.664 4.282-5.935 8.98-5.935 12.885" fill="#325bb3"/><path d="M404.69 149.797c-4.526-.854-3.563-3.372-3.563-3.372s.209-1.42.292-3.216c.021-.458.032-.944.029-1.436a19.4 19.4 0 00-.123-2.225c-.372-3.037 8.214-1.225 8.214-1.225s-.495 6.146.689 7.988c1.183 1.842-1.012 4.341-5.539 3.486" fill="#eea886"/><path d="M396.056 146.41s9.128 10.54 12.503 12.982c0 0 3.877-3.503 1.488-12.753 0 0-4.408-2.208-13.991-.23M396.305 121.041s-4.741 9.135-.04 17.787c4.703 8.65 13.94-3.768 14.536-5.225.599-1.458 3.766-9.699-2.533-12.204-6.301-2.504-10.62-2.836-11.963-.358" fill="#eea886"/><path d="M397.881 124.283s-3.264 4.286-3.65 7.453c0 0-1.299-5.988 2.374-11.741 3.672-5.752 13.012-.274 14.264 2.025 1.25 2.299 4.916 4.324-1.242 14.201 0 0-11.075-7.694-11.746-11.938" fill="#464240"/><path d="M405.456 139.739s-.823 1.798-4.037 3.47c.021-.458.032-.944.029-1.436 0 0 2.177-.262 4.008-2.034" fill="#a77860"/><path d="M357.547 188.305s-2.254 1.003-3.324.548c-1.067-.454-2.72-.542-3.24-.544-.698-.001-2.879-.78-2.843.074.039.852 3.543 1.446 4.26 1.713.717.265-2.145 1.841-2.41 2.541-.267.7 2.965 5.295 4.787 3.986 1.823-1.31 2.81-3.923 3.18-4.088.372-.167 1.37-.9 1.37-.9l-1.78-3.33" fill="#eea886"/><path d="M350.333 192.23s-5.284 4.382-5.366 4.974c-.083.592.196.87.708.48s5.241-4.084 5.241-4.084-5.296 6.253-5.473 6.717c-.106.272.402.838.698.655.296-.183 5.927-6.07 5.927-6.07s-4.933 5.849-4.959 6.286c-.024.383.57.796.968.388.399-.408 5.308-5.568 5.308-5.568s-3.3 4.49-3.097 4.885c.125.243.543.75 1.355-.437.812-1.187 3.044-3.773 3.044-3.773l-4.354-4.452" fill="#eea886"/><path d="M413.632 219.575h-15.56s-14.336 1.148-15.484-8.892c-1.15-10.043 4.713-15.62 4.713-15.62s7.574 2.017 14.186 3.613c3.309-.703 7.298-1.16 11.957-1.041 0 0 28.027 9.26 27.183 14.136 0 0-11.724-6.268-26.995 7.804" fill="#ff7e55"/><path d="M403.504 202.185l29.667-.437-14.979 7.607z" fill="#5e5853"/><path d="M412.721 198.395s-6.674 2.584-14.856.246l-.382-3.054 16.845.937-1.607 1.87" fill="#325bb3"/><path d="M418.192 209.355l-14.688-5.691v-1.479l15.85 5.718-1.162 1.452" fill="#91887f"/><path d="M412.616 199.808a1.469 1.469 0 002.043 1.455l1.721-.735c.517-.221.819-.767.73-1.324-.718-4.487-2.257-21.955-.006-24.953.83-1.107 1.348-2.079 1.64-2.927 1.485 3.828 3.333 8.76 4.068 11.412l14.016 18.647 4.7 1.192c-5.865-14.131-10.576-21.618-10.576-21.618-.917-2.462-3.548-9.92-5.877-16.56a7906.29 7906.29 0 01-3.547-10.137 4.743 4.743 0 00-2.052-2.513c-2.17-1.299-5.788-3.344-9.07-4.936l-.038-.019-.313-.152-.007-.001-.001-.002c6.236 9.438 3.804 36.09 2.573 53.134l-.004.037M389.463 147.443c-1.999.308-6.954 5.118-9.583 9.973-3.003 5.541-6.06 11.85-8.35 13.924-4.213 3.817-16.005 17.307-16.565 16.98-.216-.125 3.234 4.028 3.672 4.221.219.098 19.38-16.506 21.22-19.036 1.747-2.398 6.412-12.464 7.808-12.242l.003.008.003.004c.106.228 1.802 3.908 3.412 9.288l.08.268c1.108 3.752 1.005 7.825.405 12.402-.453 3.455-3.032 9.103-4.587 11.852-.188.331-.14.96.063 1.439.121.285.296.517.51.596l5.625 2.084 1.322.49c.952.353 1.951.169 2.696-.373a2.857 2.857 0 001.162-1.956c1.25-9.621 2.833-19.452 4.094-23.154 5.535-16.25-2.162-28.459-2.162-28.459s-9.075 1.036-10.828 1.69" fill="#eddad3"/><path d="M418.192 209.355l8.825-24.095 28.448.464-8.41 22.204-28.863 1.427" fill="#6e6760"/><path d="M436.119 195.919c-.867 1.736-.606 3.625.586 4.221 1.192.596 2.862-.328 3.73-2.063.868-1.734.606-3.625-.587-4.221-1.19-.596-2.86.328-3.73 2.063" fill="#807066"/><path d="M406.13 130.137s1.822 2.835.14 5.283c-1.685 2.447.425 4.85.789 7.437.366 2.587-7.027 9.471 1.196 12.934 8.221 3.462 10.838-2.262 8.74-5.412-2.098-3.151-3.587-5.707-3.764-10.198-.176-4.492-1.655-11.493-7.1-10.044" fill="#464240"/><path d="M346.576 96.115h35.041v30.749l-5.348-5.35h-29.693v-25.4" fill="#78c2ff"/></svg>